<?xml version="1.0" encoding="UTF-8"?>
<svg xmlns="http://www.w3.org/2000/svg" version="1.1" xmlns:xlink="http://www.w3.org/1999/xlink" viewBox="0 0 4000 4000">
  <defs>
    <filter id="luminosity-noclip" x="1782.785" y="1230.585" width="1351.053" height="585.379" color-interpolation-filters="sRGB" filterUnits="userSpaceOnUse">
      <feFlood flood-color="#fff" result="bg"/>
      <feBlend in="SourceGraphic" in2="bg"/>
    </filter>
    <filter id="luminosity-noclip-2" x="1782.785" y="-10192" width="1351.053" height="32766" color-interpolation-filters="sRGB" filterUnits="userSpaceOnUse">
      <feFlood flood-color="#fff" result="bg"/>
      <feBlend in="SourceGraphic" in2="bg"/>
    </filter>
    <mask id="mask-1" x="1782.785" y="-10192" width="1351.053" height="32766" maskUnits="userSpaceOnUse"/>
    <linearGradient id="linear-gradient" x1="3315.525" y1="1579.173" x2="1268.474" y2="1444.941" gradientUnits="userSpaceOnUse">
      <stop offset="0" stop-color="#fff"/>
      <stop offset="1" stop-color="#000"/>
    </linearGradient>
    <mask id="mask" x="1782.785" y="1230.585" width="1351.053" height="585.379" maskUnits="userSpaceOnUse">
      <g style="filter: url(#luminosity-noclip);">
        <g style="mask: url(#mask-1);">
          <polygon points="2131.82 1230.585 3133.839 1499.804 2794.331 1815.964 1782.785 1555.756 2131.82 1230.585" style="fill: url(#linear-gradient); mix-blend-mode: multiply;"/>
        </g>
      </g>
    </mask>
    <linearGradient id="linear-gradient-2" x1="3315.525" y1="1579.173" x2="1268.474" y2="1444.941" gradientUnits="userSpaceOnUse">
      <stop offset="0" stop-color="#fff"/>
      <stop offset="1" stop-color="#fff"/>
    </linearGradient>
    <filter id="luminosity-noclip-3" x="1503.482" y="1660.792" width="1180.187" height="438.853" color-interpolation-filters="sRGB" filterUnits="userSpaceOnUse">
      <feFlood flood-color="#fff" result="bg"/>
      <feBlend in="SourceGraphic" in2="bg"/>
    </filter>
    <filter id="luminosity-noclip-4" x="1503.482" y="-10192" width="1180.187" height="32766" color-interpolation-filters="sRGB" filterUnits="userSpaceOnUse">
      <feFlood flood-color="#fff" result="bg"/>
      <feBlend in="SourceGraphic" in2="bg"/>
    </filter>
    <mask id="mask-3" x="1503.482" y="-10192" width="1180.187" height="32766" maskUnits="userSpaceOnUse"/>
    <linearGradient id="linear-gradient-3" x1="3290.559" y1="1959.903" x2="1243.502" y2="1825.671" gradientUnits="userSpaceOnUse">
      <stop offset="0" stop-color="#fff"/>
      <stop offset="1" stop-color="#000"/>
    </linearGradient>
    <mask id="mask-2" x="1503.482" y="1660.792" width="1180.187" height="438.853" maskUnits="userSpaceOnUse">
      <g style="filter: url(#luminosity-noclip-3);">
        <g style="mask: url(#mask-3);">
          <polygon points="1661.004 1660.792 2683.669 1919.016 2489.701 2099.645 1503.482 1815.964 1661.004 1660.792" style="fill: url(#linear-gradient-3); mix-blend-mode: multiply;"/>
        </g>
      </g>
    </mask>
    <linearGradient id="linear-gradient-4" x1="3290.559" y1="1959.903" x2="1243.502" y2="1825.671" xlink:href="#linear-gradient-2"/>
  </defs>
  <!-- Generator: Adobe Illustrator 28.7.7, SVG Export Plug-In . SVG Version: 1.2.0 Build 194)  -->
  <g>
    <g id="Layer_1">
      <g>
        <rect width="4000" height="4000" style="fill: #67eaff;"/>
        <g>
          <path d="M2489.725,2899.634c-7.473,25.19-308.583,195.79-321.131,192.97-7.895-1.739-234.656,92.49-482.848,136.526-148.135,26.225-303.836,34.59-425.324-5.968-126.375-42.157-236.442-125.388-323.763-211.346v-.047c-.094-.094-.235-.188-.329-.282-32.569-32.099-61.989-64.527-87.884-95.404-83.232-99.117-130.37-181.597-130.37-181.597l15.697-33.274,53.012-112.605,200.255-424.995c2.538.658,49.253-13.206,116.459-33.791,155.936-47.89,422.315-131.921,504.373-154.432,96.297-26.319,239.545-51.791,358.964-56.538,26.225-.987,51.32-1.034,74.49.141,128.631,6.579,581.684,393.366,613.077,450.232,31.394,56.866-157.252,505.266-164.678,530.409Z" style="fill: #ffe2d3;"/>
          <path d="M2496.232,2379.576l34.204-26.18s15.201,30.296,15.201,34.491-15.201,14.915-15.201,14.915" style="fill: #f4bdb0;"/>
          <path d="M3086.298,1744.406s228.507-78.021,277.617,100.956c49.11,178.977-156.434,246.385-461.255,318.25-304.821,71.865-369.141-141.215-360.751-152.129" style="fill: #ffe2d3;"/>
          <path d="M3142.199,1760.024l108.161,7.967s-166.859,40.083-206.011,164.995c-39.151,124.911,164.063,108.132,164.063,108.132l-307.617,96.946-170.588-38.42" style="fill: #f4bdb0;"/>
          <path d="M2786.418,2199.403c-146.519.005-214.717-76.694-239.873-115.654-1.616-2.51-39.448-61.69-21.396-85.159,7.124-9.258,20.396-10.991,29.658-3.87,6.821,5.244,9.556,13.833,7.676,21.694,1.563,12.549,18.242,57.261,64.341,92.817,63.452,48.945,157.168,60.64,270.982,33.794,199.072-46.934,382.197-96.533,435.762-186.758,17.876-30.117,21.133-64.563,9.951-105.31-10.845-39.526-31.46-66.887-63.027-83.647-75.449-40.059-186.274-3.257-187.383-2.883-11.055,3.733-23.066-2.163-26.821-13.215-3.76-11.047,2.129-23.049,13.174-26.821,5.225-1.78,128.965-43.105,220.698,5.474,41.919,22.197,70.229,59.175,84.15,109.902,14.18,51.68,9.346,98.142-14.375,138.093-62.114,104.639-246.172,155.352-462.422,206.338-45.317,10.684-85.518,15.205-121.094,15.205ZM2562.36,2014.935" style="fill: #040075;"/>
          <path d="M1249.216,2749.338c69.359-217.818,116.046-443.136,59.426-702.626l507.569-567.694c199.025-244.89,101.318-449.238-29.59-424.493-21.66,4.094-41.55,14.791-58.025,29.436-127.447,113.291-216.725,194.604-411.564,268.281-585.872,300.16-860.964,898.408-573.287,1433.3" style="fill: #ffe2d3;"/>
          <g style="opacity: .81;">
            <path d="M1927.545,1243.832c-11.373-87.697-71.483-139.064-140.944-125.905-21.619,4.089-41.545,14.757-57.994,29.42-127.457,113.31-216.751,194.615-411.554,268.259-414.938,212.568-673.985,574.681-687.662,957.848-14.334-406.29,249.931-796.93,687.662-1021.2,194.803-73.691,284.097-154.996,411.554-268.306,16.449-14.616,36.376-25.332,57.994-29.42,84.876-16.073,155.796,64.151,140.944,189.304Z" style="fill: #fff;"/>
          </g>
          <path d="M2201.914,2683.824s-192.688,199.033-286.447,245.184c-93.712,46.198-139.816,9.775-302.003-114.673-162.187-124.401-293.638,15.979-293.638,15.979-198.939,203.967,15.743,385.752,365.919,398.817-148.135,26.225-303.836,34.59-425.324-5.968-126.375-42.157-236.442-125.388-323.763-211.346v-.047c-.094-.094-.235-.188-.329-.282-33.321-29.514-62.412-61.707-87.884-95.404-51.932-68.757-88.684-143.717-114.673-214.871-59.968-164.02-62.741-307.737-62.741-307.737,0,0,11.185,120.031,115.753,195.132,38.632,27.775,90.047,49.441,158.333,56.584,253.079,26.553,282.405-275.967,282.405-275.967,0,0-153.774-28.856-134.223-171.492,2.679-19.598,5.734-42.533,10.199-67.911,27.775-159.179,110.396-414.279,507.145-544.555,199.362-65.42,302.896,111.759,356.191,333.585,69.697,290.066,53.53,656.408,53.53,656.408l181.55,108.564Z" style="fill: #f4bdb0;"/>
          <path d="M1249.216,2749.338c22.276-116.487,45.941-232.404,54.267-350.161,9.253-116.599,2.379-232.424-15.503-347.947-1.329-6.779.506-13.773,4.896-18.616,124.412-139.16,382.35-427.628,504.079-563.782,6.416-6.925,11.613-14.814,17.413-21.851,49.515-65.911,89.952-143.187,93.706-226.604,2.007-51.241-12.318-106.318-55.972-134.2-34.412-21.649-80.436-13.525-109.537,13.664-65.618,58.27-130.992,117.431-205.969,166.405-62.9,42.007-148.134,82.206-209.922,104.816-419.46,213.617-728.719,617.848-668.734,1105.871,13.377,105.842,43.49,209.895,85.806,308.606-70.582-106.114-115.176-230.687-130.862-357.519-38.821-314.917,115.715-625.754,338.098-841.084,105.755-102.623,227.773-187.724,358.572-254.478,71.438-27.263,140.511-59.8,203.853-101.587,71.349-46.515,136.371-105.138,201.057-162.646,8.335-7.39,17.517-14.014,27.417-19.543,40.192-22.952,92.799-23.357,132.329,1.434,57.838,35.848,79.029,107.641,76.133,171.828-3.911,92.371-47.78,178.287-102.336,250.681-5.939,7.234-12.814,17.091-18.868,23.653-120.757,135.079-381.286,426.451-504.729,564.529,0,0,4.895-18.604,4.895-18.604,16.472,58.469,25.822,119.055,29.165,179.875,10.184,181.625-34.456,362.909-109.253,527.258h0Z" style="fill: #040075;"/>
          <path d="M3363.902,1497.2c0-1.165.03-2.33,0-3.495v-130.743c.053-38.185-16.066-76.319-48.16-103.014l-613.218-510.068c-51.524-42.856-126.813-40.95-176.101,4.457l-1293.681,1191.821c-27.015,24.888-41.344,58.213-42.927,92.067v.003c-.197,4.215-.2,8.434,0,12.65v121.722c-1.705,36.478,11.396,73.57,39.552,101.387l563.066,556.273c50.794,50.181,132.054,51.599,184.567,3.22l1343.835-1238.026c28.771-26.506,43.018-62.337,43.068-98.121h0v-.134Z" style="fill: #c7e1f9;"/>
          <g style="opacity: .81;">
            <polyline points="1827.599 2720.857 1827.599 2855.245 1916.886 2868.852 1976.998 2833.481 1967.305 2720.857" style="fill: #fff;"/>
          </g>
          <polygon points="1954.639 2709.484 1954.639 2850.122 3290.684 1623.231 3284.111 1494.914 1954.639 2709.484" style="fill: #98bbe5;"/>
          <path d="M1886.421,2645.184c-11.777,0-22.865-4.553-31.232-12.816l-563.066-556.273c-11.772-11.628-13.319-25.272-13.195-32.373.124-7.1,2.148-20.683,14.315-31.893l1241.316-1156.45c8.225-7.58,18.914-11.752,30.108-11.752,7.316,0,18.184,1.781,28.386,10.269l613.22,510.068c13.475,11.208,15.806,25.5,15.995,33.022.193,7.522-1.414,21.913-14.306,33.791l-1291.471,1202.658c-8.22,7.577-18.904,11.749-30.071,11.749h0Z" style="fill: #040075;"/>
          <g style="mask: url(#mask);">
            <polygon points="2131.82 1230.585 3133.839 1499.804 2794.331 1815.964 1782.785 1555.756 2131.82 1230.585" style="fill: url(#linear-gradient-2); opacity: .67;"/>
          </g>
          <g style="mask: url(#mask-2);">
            <polygon points="1661.004 1660.792 2683.669 1919.016 2489.701 2099.645 1503.482 1815.964 1661.004 1660.792" style="fill: url(#linear-gradient-4); opacity: .67;"/>
          </g>
          <path d="M1886.403,2890.076c-39.37,0-78.672-14.971-108.833-44.77l-563.066-556.274c-31.045-30.664-47.734-73.252-45.84-116.909v-120.772c-.205-4.683-.195-9.424.02-14.102,1.924-41.006,19.585-78.877,49.727-106.645l1293.682-1191.821c56.851-52.366,144.521-54.595,203.955-5.161l613.218,510.068c35.518,29.543,55.854,73.027,55.786,119.302v130.479c.02.913.015,1.829.005,2.742l-.005,1.123c-.063,43.74-17.783,84.099-49.888,113.674l-1343.833,1238.027c-29.751,27.402-67.368,41.04-104.927,41.04ZM2617.052,740.23c-27.471,0-54.893,9.936-76.299,29.661l-1293.682,1191.821c-21.904,20.178-34.736,47.705-36.138,77.505-.161,3.535-.161,7.134.005,10.679.015.327.02.654.02.981v121.724c0,.327-.005.659-.02.986-1.489,31.87,10.645,62.983,33.291,85.356l563.066,556.274c42.842,42.324,111.084,43.516,155.371,2.705l1343.833-1238.023c23.33-21.492,36.206-50.825,36.255-82.598l21.148-.103h-21.148l.005-1.343c.005-.54.015-1.082,0-1.621-.005-.178-.005-.354-.005-.532v-130.742c.044-33.677-14.731-65.286-40.542-86.753l-613.218-510.068c-20.816-17.314-46.397-25.911-71.943-25.911Z" style="fill: #040075;"/>
          <path d="M1886.408,2755.706c-39.37,0-78.682-14.976-108.838-44.775l-563.066-556.27c-30.41-30.044-46.748-70.127-46.001-112.871.747-42.737,18.472-82.227,49.907-111.187l1293.682-1191.821c56.851-52.366,144.521-54.595,203.955-5.161l613.223,510.066c34.316,28.547,54.648,70.515,55.776,115.139,1.128,44.624-17.056,87.564-49.883,117.81l-1343.833,1238.03c-29.751,27.402-67.363,41.04-104.922,41.04ZM2617.052,740.23c-27.471,0-54.893,9.936-76.299,29.661l-1293.682,1191.821c-22.852,21.052-35.737,49.751-36.279,80.82-.542,31.064,11.333,60.2,33.438,82.041l563.066,556.27c42.837,42.319,111.079,43.521,155.371,2.71l1343.833-1238.025c23.867-21.985,37.08-53.196,36.26-85.632-.82-32.436-15.596-62.939-40.542-83.689l-613.223-510.066c-20.816-17.314-46.397-25.911-71.943-25.911ZM1976.999,2699.11h.049-.049Z" style="fill: #040075;"/>
          <path d="M1886.423,2666.331c-17.373,0-33.745-6.719-46.099-18.921l-563.062-556.27c-17.368-17.158-19.658-37.3-19.483-47.778.191-10.498,3.184-30.547,21.133-47.087l1241.235-1156.37c12.217-11.265,27.998-17.427,44.521-17.427,10.811,0,26.856,2.632,41.914,15.164l613.218,510.064c19.902,16.558,23.335,37.656,23.608,48.757.288,11.077-2.07,32.322-21.113,49.868l-1291.392,1202.583c-12.207,11.255-27.979,17.417-44.482,17.417ZM2564.67,864.779c-5.869,0-11.47,2.183-15.771,6.15l-1241.24,1156.375c-6.138,5.654-7.505,12.251-7.583,16.797-.078,4.531,1.055,11.167,6.914,16.953l563.062,556.269c4.385,4.326,10.195,6.714,16.372,6.714,5.845,0,11.431-2.183,15.732-6.148l1291.396-1202.588c6.499-5.991,7.7-12.961,7.573-17.766-.117-4.834-1.665-11.731-8.374-17.31l-613.223-510.068c-4.287-3.572-9.287-5.379-14.858-5.379Z" style="fill: #040075;"/>
          <path d="M3049.469,1151.534c-4.727,0-9.482-1.577-13.418-4.81l-206.479-169.656c-9.023-7.415-10.327-20.742-2.91-29.766,7.417-9.026,20.747-10.327,29.766-2.915l206.479,169.656c9.023,7.415,10.327,20.742,2.91,29.766-4.18,5.09-10.239,7.725-16.348,7.725Z" style="fill: #040075;"/>
          <ellipse cx="3110.068" cy="1186.315" rx="23.77" ry="20.508" style="fill: #040075;"/>
          <path d="M3038.756,2232.214c-97.877-243.297-421.342-70.845-421.342-70.845-117.914,74.546-108.533,206.327-16.317,268.718l62.926,145.167c179.058-4.915,472.612-99.743,374.733-343.04Z" style="fill: #ffe2d3;"/>
          <path d="M2553.094,2359.922s-22.852-101.404,60.125-166.393c0,0-71.311,145.885,100.675,209.273,171.986,63.388,307.617-33.558,307.617-33.558,0,0-69.717,185.925-322.551,204.008l-60.573-24.464" style="fill: #f4bdb0;"/>
          <path d="M2477.599,2949.968c-76.276,69.697-158.99,127.409-245.184,174.077-.094.047-.188.094-.282.141-410.003,221.732-898.02,192.829-1138.833,10.386,63.728-16.026,127.174-32.052,189.962-48.125,184.605-47.232,363.569-94.746,528.388-143.012,53.483-15.65,105.461-31.394,155.654-47.232,169.471-53.436,318.64-107.858,436.18-163.973,23.781-4.465,48.595-11.937,74.114-22.747l-74.114,22.747c-85.534,16.167-157.721-6.016-201.617-48.36-.047-.047-.094-.094-.094-.141-37.692-36.376-54.516-87.696-40.981-142.401,9.399-37.927,33.133-70.59,64.527-93.853,288.422-213.649,652.132,110.725,252.28,502.493Z" style="fill: #ffe2d3;"/>
          <path d="M2201.914,2683.824s-63.405-115.561,23.987-196.66c26.61,224.265,166.482,258.917,387.318,158.021,0,0-26.552,67.447-172.678,89.296,0,0-72.95.642-72.95,56.806s47.888,77.566,47.888,77.566c0,0-289.746,98.351-264.274-134.372" style="fill: #f4bdb0;"/>
          <path d="M2232.133,3124.186c-410.003,221.732-898.02,192.829-1138.833,10.386,63.728-16.026,127.174-32.052,189.962-48.125,126.093,150.861,534.169,211.769,948.871,37.739Z" style="fill: #f4bdb0;"/>
          <path d="M1811.65,2943.435c53.483-15.65,105.461-31.394,155.654-47.232-19.033,13.958-36.704,25.378-51.837,32.804-38.914,19.175-69.603,24.11-103.817,14.428Z" style="fill: #f4bdb0;"/>
          <path d="M2201.867,2683.871c-.047-.047-.094-.094-.094-.141l.141.094-.047.047Z" style="fill: #f4bdb0;"/>
          <path d="M2477.599,2709.484c-25.519,10.81-50.334,18.282-74.114,22.747l74.114-22.747Z" style="fill: #ffe2d3;"/>
          <path d="M2477.588,2709.487c-82.27,57.823-204.383,65.494-283.262-3.342-89.502-77.179-73.06-212.489,21.222-277.878,80.719-60.004,189.466-88.85,287.333-56.713,102.082,31.602,171.281,126.863,172.498,233.281,3.144,154.787-110.192,300.552-223.213,395.415-294.845,244.701-705.81,363.634-1082.44,273.198-100.343-25.871-198.935-68.76-276.416-138.889,366.696,211.472,899.023,137.229,1239.035-96.425,47.332-32.975,93.655-68.998,135.704-108.546,46.006-45.944,88.063-97.11,118.752-153.572,28.362-52.358,47.801-110.267,46.297-170.046-1.104-89.172-57.746-167.485-143.27-193.905-84.991-27.334-177.968-1.82-249.218,50.651-45.783,31.587-72.774,88.328-60.127,143.027,12.387,55.261,63.424,91.452,116.689,105.612,59.435,16.243,119.527,9.456,180.415-1.867h0Z" style="fill: #040075;"/>
          <path d="M2284.863,2718.704c6.96,38.287,21.214,77.975,48.696,106.592,9.59,9.681,21.051,17.431,34.034,22.153-14.113-1.751-27.788-7.111-39.878-14.795-37.251-24.625-61.981-63.799-79.259-104.406-8.866-26.553,31.071-37.086,36.407-9.544h0Z" style="fill: #040075;"/>
          <path d="M2341.258,2471.783s35.189,70.612,26.334,159.402c177.812,30.063,154.907-213.905-26.334-159.402Z" style="fill: #e3faff;"/>
          <path d="M2396.613,2652.537c-10.249,0-20.996-.928-32.158-2.817-9.746-1.646-16.553-10.567-15.571-20.4,8.174-81.934-24.141-148.521-24.468-149.185-2.446-4.961-2.598-10.762-.391-15.835,2.202-5.068,6.523-8.931,11.816-10.522,90.464-27.197,135.254,14.771,150.317,34.077,26.255,33.652,29.731,79.995,8.657,115.327-19.17,32.129-54.072,49.355-98.203,49.355ZM2387.575,2614.632c34.936,2.241,61.758-8.604,74.951-30.713,13.189-22.109,10.776-51.421-6.011-72.939-18.623-23.867-50.596-32.974-89.507-26.084,9.492,26.04,22.808,73.398,20.566,129.736Z" style="fill: #040075;"/>
          <path d="M2884.016,2424.243c-60.636,56.299-151.999,73.914-231.343,51.952-61.874-17.531-117.303-65.559-134.939-128.693-23.688-81.469,20.422-160.116,89.346-202.604,121.754-60.543,303.533-107.875,407.497,9.031,46.474,53.444,73.52,137.891,60.381,208.06-24.889,125.925-158.062,187.661-270.781,215.252-45.733,10.957-92.301,17.69-139.573,19.153-11.675.361-21.433-8.809-21.794-20.483-.368-11.728,8.904-21.518,20.632-21.797,86.977-3.089,176.77-22.33,253.943-62.726,106.783-56.056,149.434-145.333,99.577-258.336-67.884-163.287-269.099-114.212-389.157-55.246-53.917,33.173-89.965,91.502-74.547,155.217,13.46,53.5,58.257,89.649,110.678,102.797,33.97,8.939,71.348,9.566,106.577,5.593,38.661-4.452,73.268-12.77,113.503-17.17h0Z" style="fill: #040075;"/>
          <path d="M2782.409,2369.244c4.712-92.234-8.089-161.868-52.202-191.096,115.253-68.316,239.103,122.581,52.202,191.096Z" style="fill: #e3faff;"/>
          <path d="M2782.409,2388.04c-3.96,0-7.876-1.25-11.152-3.667-5.083-3.745-7.944-9.79-7.622-16.089,4.77-93.345-9.971-152.041-43.813-174.468-5.391-3.574-8.569-9.673-8.408-16.138.161-6.47,3.642-12.402,9.209-15.703,39.058-23.149,84.487-22.7,121.499,1.201,37.822,24.424,59.194,67.764,54.438,110.41-3.203,28.75-21.455,81.699-107.681,113.306-2.1.772-4.292,1.148-6.47,1.148ZM2764.396,2184.354c25.767,32.173,38.193,83.599,37.686,155.693,33.975-17.998,53.975-42.49,57.114-70.625,3.184-28.599-11.523-57.905-37.471-74.663-17.661-11.406-37.671-14.873-57.329-10.405Z" style="fill: #040075;"/>
        </g>
      </g>
    </g>
  </g>
</svg>